<svg width="115" height="48" viewBox="0 0 115 48" fill="none" xmlns="http://www.w3.org/2000/svg">
<path d="M13.5227 47L0.204545 0.454544H10.9545L18.6591 32.7955H19.0455L27.5455 0.454544H36.75L45.2273 32.8636H45.6364L53.3409 0.454544H64.0909L50.7727 47H41.1818L32.3182 16.5682H31.9545L23.1136 47H13.5227ZM81.3352 47.6818C77.7443 47.6818 74.6534 46.9545 72.0625 45.5C69.4867 44.0303 67.5019 41.9545 66.108 39.2727C64.714 36.5758 64.017 33.3864 64.017 29.7045C64.017 26.1136 64.714 22.9621 66.108 20.25C67.5019 17.5379 69.464 15.4242 71.9943 13.9091C74.5398 12.3939 77.5246 11.6364 80.9489 11.6364C83.2519 11.6364 85.3958 12.0076 87.3807 12.75C89.3807 13.4773 91.1231 14.5758 92.608 16.0455C94.108 17.5152 95.2746 19.3636 96.108 21.5909C96.9413 23.803 97.358 26.3939 97.358 29.3636V32.0227H67.8807V26.0227H88.2443C88.2443 24.6288 87.9413 23.3939 87.3352 22.3182C86.7292 21.2424 85.8883 20.4015 84.8125 19.7955C83.7519 19.1742 82.517 18.8636 81.108 18.8636C79.6383 18.8636 78.3352 19.2045 77.1989 19.8864C76.0777 20.553 75.1989 21.4545 74.5625 22.5909C73.9261 23.7121 73.6004 24.9621 73.5852 26.3409V32.0455C73.5852 33.7727 73.9034 35.2652 74.5398 36.5227C75.1913 37.7803 76.108 38.75 77.2898 39.4318C78.4716 40.1136 79.8731 40.4545 81.4943 40.4545C82.5701 40.4545 83.5549 40.303 84.4489 40C85.3428 39.697 86.108 39.2424 86.7443 38.6364C87.3807 38.0303 87.8655 37.2879 88.1989 36.4091L97.1534 37C96.6989 39.1515 95.767 41.0303 94.358 42.6364C92.964 44.2273 91.161 45.4697 88.9489 46.3636C86.7519 47.2424 84.214 47.6818 81.3352 47.6818ZM109.335 47.5909C107.835 47.5909 106.547 47.0606 105.472 46C104.411 44.9242 103.881 43.6364 103.881 42.1364C103.881 40.6515 104.411 39.3788 105.472 38.3182C106.547 37.2576 107.835 36.7273 109.335 36.7273C110.79 36.7273 112.063 37.2576 113.153 38.3182C114.244 39.3788 114.79 40.6515 114.79 42.1364C114.79 43.1364 114.532 44.053 114.017 44.8864C113.517 45.7045 112.858 46.3636 112.04 46.8636C111.222 47.3485 110.32 47.5909 109.335 47.5909Z" fill="white"/>
</svg>
